<?xml version="1.0" encoding="UTF-8"?><svg id="Layer_1" xmlns="http://www.w3.org/2000/svg" xmlns:xlink="http://www.w3.org/1999/xlink" viewBox="0 0 588.35 566.77"><defs><linearGradient id="linear-gradient" x1="146.5" y1="37.7" x2="431.35" y2="531.08" gradientUnits="userSpaceOnUse"><stop offset="0" stop-color="#72788b"/><stop offset="1" stop-color="#414042"/></linearGradient></defs><path d="M211.81,0h163.43c.42,1.33,.68,3.06,.65,5.23-1.24,.5-.65,4.71-.65,6.37v10.38c0,28.62-.66,55.23-.65,83.84H215.07v1.31c55.01,0,106.56,0,160.82,0v76.49c0,3.11,.02,19.3,.02,24.2,3.99,0,11.01-.01,16.49-.01h33.83c1.13-.98,13.86-.33,16.51-.33,15.14,0,31.27,.27,46.9,.33,0,.44,0-.17,0,.26,1.53-.12,1.58-.26,2.62-.26,1.62,0,4.67,.15,5.61,.2,1.28,.07,1.05,.1,1.58-.2h9.65c14.43-.11,28.87-.22,43.31-.33v14.06c3.01-.91,8.07-.66,12.09-.66,7.89,0,17,.11,23.86,.66,.02,15.66-1.29,29.4-1.31,44.45h-34.65v14.39h33.99c0,8.82-.64,16.64-.65,24.83h-1.31v1.31h1.31c.02,3.49-.45,7.23-.65,9.81h-27.46c-.19,.76-.56,1.11-1.3,1.31-.23-.97-.71-1.32-1.96-1.31-.84,2.06-10.74,1.31-14.05,1.31h-217.52c-6.33,0-14.91,.89-20.1-.66-.24,.78,.12,.41-.65,.66v.65c16.53-.02,32.87,.13,46.41,0,.24,.78-.11,.41,.65,.65,.63-1.42,7.3-.65,9.32-.65h53.28c3.1,0,9.68,.49,10.62,0h13.08c.25,.13-.21,.99,.65,.65,4.66-1.83,13.71-.65,19.61-.65,14.87,0,31.31-.33,45.11,.65,.3-.71,9.64-.66,13.24-.65,14.48,0,27.14,.03,39.72,.65,.28-.87,.86-.75,1.96-.65v.65c.22-.06,.44-.11,.66-.16,1.71-1.25,2.94,1.13,4.57,.16,2.76-1.65,19.74-.63,24.19-.65v1.96c-1.56,0-3.44-1.28-4.58-.65-.69,.38-1.12,.65-2.61,.65v.66h7.19v.65c-3.28,.99-8.77,.66-13.07,.66h-106.56v.65h118.32c.52,1.63,1.32,2.08,1.31,4.57h-4.58v.66h3.93c.38,1.2,.68,2.56,.65,4.58-.82,.25-.68,.3-.65,1.31,.81,.34,.62,.24,.65,1.3,.05,1.37-.26,1.35-.65,1.96v9.15h-.65c-1,1.54,.61,4.2,.65,5.23-1.17,.39-1.15,21.16-1.96,21.72h-207.88s-.65,.6-.65,1.1v18.36c0,.63-.65,.39-.65,.83v24.66c-1.21,.07-.76,.29-1.31,.65-.22-.05-.44-.11-.66-.16-.8-.64-2.42-.49-3.92-.49v.65h1.96v1.31h-1.31v1.31c.83-.25,.49-.4,1.31-.65,.25,.82,.3,.67,1.31,.65v-.65c-.78-.24-.41,.11-.65-.66,1.02-.33,1.57-.68,3.27-.65-.93,12.54,0,30.72,0,45.43s-.65,27.11-.65,41.68c0,4.51,1.01,25.07-.65,28.02-.06,.1,.65,8.1,.65,9.81-.76,.19-1.11,.55-1.31,1.31,.87,.27,.75,.86,.66,1.96-.78,.24-.41-.12-.66,.65,2.08,.67,1.39,12.37,1.31,15.69-.92,.29-.67,.57-1.96,.65v1.31H234.03c-5.24,0-12.18-.59-16.34,.65-.31-.94-.89-.7-1.31-1.31v-82.44c-1-.4-.65-13.26-.65-15.69v-32.85c0-5.23,.51-12.01-.65-16.18,.82-.25,.68-.3,.65-1.31-1.01-.38-.65-12.53-.65-14.87v-28.12c-5.59-1.68-14.82-.66-21.57-.66H4.58v-43.95h-.65v-12.42c-.43-.76-.65-1.38-.65-2.94v-18.63c-1.64-2.9-.65-13.37-.65-17.81v-3.76c-.45-.78-.65-1.51-.65-3.11,0-9.6-.65-17.34-.65-26.63v-11.44H.65v-7.36c0-5.62-.65-9.63-.65-15.52,2.38-.75,3.65-1.98,7.19-1.96v59.49h-2.61v.66h2.61v7.84h.66v-7.19c1.91-.59,5-.68,7.84-.65v-.66h-7.19c-1.52-5.05-.65-13.43-.65-19.61v-39.22c5.63-1.69,14.94-.65,21.73-.65h44.13c46.79,0,92.53-.86,139.32-.86-.04-.04,.09-6.33,.09-6.33,.78-.24-.06,.12,.18-.65,0-1.16-.18-9.96-.18-12.09v-38.57c0-52.92-1.3-96.11-1.3-149.3Zm73.22,112.36v-1.31h-.65c-.24,.78,.12,.41-.65,.65v.65h1.31Zm-66.68,7.19v.65h.65v-.65h-.65Zm129.44,44.45v.66h.65v-.66h-.65Zm-66.03,8.5v.65h.65v-.65h-.65Zm200.69,36.61v.66h1.31v-.66h-1.31Zm-29.42,3.92v.66h.65v-.66h-.65Zm-43.87,5.17v.79h.79v-.79h-.79Zm-15.04,1.96v.78h.79v-.78h-.79Zm-21.57,2.61v.79h.79v-.79h-.79Zm-15.04,1.96v.78h.79v-.78h-.79Zm-50.99,6.54v.78h.78v-.78h-.78Zm-15.04,1.96v.78h.79v-.78h-.79Zm-14.38,1.31v.78h.79v-.78h-.79Zm-9.1,1.74v.78h.78v-.78h-.78Zm-15.04,1.96v.78h.79v-.78h-.79Zm-14.38,1.31v.78h.79v-.78h-.79Zm-13.12,1.53v.79h.78v-.79h-.78Zm-7.19,1.31v.78h.78v-.78h-.78Zm-7.19,.65v.79h.79v-.79h-.79Zm-38.04,4.59v.78h.78v-.78h-.78Zm-13.6,1.95v.78h.79v-.78h-.79Zm-14.38,1.96v.79h.79v-.79h-.79Zm-29.42,3.27v.79h.78v-.79h-.78Zm466.82,3.34v.65h.65v-.65h-.65Zm-496.24,.59v.78h.78v-.78h-.78Zm-7.19,.65v.79h.78v-.79h-.78Zm-15.1,1.96v.79h1.57v-.79h-1.57Zm488.46,.07v.66h1.31v-.66h-1.31Zm-509.97,2.55v.78h.79v-.78h-.79Zm481.2,1.37v.65h-7.19v.66h18.63c0-.22,19.77-.44,19.77-.66h-30.55c-.24-.78,.11-.41-.65-.65ZM7.19,311.75v5.23c-.76,.19-1.11,.55-1.31,1.31h1.31v3.92h-1.31v.65h1.31v8.5h-1.31v.65h1.31c.01,5.69,.02,32.12,0,39.38h.66v-34.8h1.3v-.65c-.82-.25-.48-.4-1.3-.66v-3.27H80.41v-.65h-9.15v-4.57h-.65v3.92c-5.2,1.58-13.92,.68-20.27,.65v-4.57h-.66v3.92c-5.2,1.58-13.92,.68-20.26,.65-.38-1.21-.68-2.56-.65-4.57h-.66v4.57H8.5c-.64-2.07-.68-5.48-.65-8.5H80.41v-.65H7.85v-3.92c11.46-.02,20.46-.15,30.72,.65,.25-.6,6.97-.66,10.13-.65h31.71v-.65c-.78-.24-.41,.11-.66-.66-6.08,1.83-16.1,.66-23.37,.66H8.5c-.24-.78,.11-.41-.65-.66v-7.84h1.96v-.66c-2.62-.8-1.96-4.49-1.96-7.84v-22.88h-.66c.01,10.92,.02,23.76,0,32.68-.92,.29-.67,.58-1.96,.66v.65h1.96Zm21.57-14.38v.65c1.1,.35,2.07,.68,3.92,.65v-.65c-1.55-.12-1.93-.64-3.92-.65Zm-2.62,.65v.65h1.96v-.65h-1.96Zm12.42,0v.65h.65v-.65h-.65Zm5.88,0v.65h1.96v-.65h-1.96Zm3.93,0v.65h1.3v-.65h-1.3Zm3.92,0v.65h.65v-.65h-.65Zm3.92,0v.65h1.31v-.65h-1.31Zm6.54,0v.65h1.31v-.65h-1.31Zm155.59,.65v1.31h2.61v-1.31h-2.61Zm11.11,0v1.31h1.96v-1.31h-1.96Zm62.76,1.31v.66h2.61v-.66h-2.61Zm10.46,0v.66h1.31v-.66h-1.31Zm-43.8,.66h-1.31v.65c.78,.24,.41-.12,.65,.66h.65v-1.31Zm108.52,0v1.31h.65v-1.31h-.65Zm-33.99,1.31v.65h.65v-.65h-.65Zm230.11,.65v.65h3.27v-.65h-3.27Zm4.58,.65v1.3h.65c.33-1,.97-.97,1.31-1.96-.92,.29-.67,.58-1.96,.65Zm4.58-.65v.65h.65v-.65h-.65Zm-165.39,.65v.65h1.96v-.65h-1.96Zm21.57,1.3h2.62v-.65c-1.53,.02-1.66-.34-2.62-.65v1.3Zm15.69-1.3v1.3h.65v-1.3h-.65Zm7.19,0v1.3h.65v-1.3h-.65Zm89.56,0v1.3h1.31v-1.3h-1.31Zm-126.82,.65v.65h.65v-.65h-.65Zm24.19,0v.65h.65v-.65h-.65Zm43.15,0v.65h-1.96v.65h1.96c.25-.82,.3-.67,1.31-.65v-.65h-1.31Zm8.5,0v.65h3.27v-.65h-3.27Zm25.49,0v.65h1.31v-.65h-1.31Zm4.58,0v.65h.65v-.65h-.65Zm28.76,0v.65h2.62v-.65h-2.62Zm8.5,0v.65h2.62v-.65h-2.62Zm-71.25,.65v.65h1.96v-.65h-1.96Zm11.11,0v.65h.65v-.65h-.65Zm3.27,0v.65h1.31v-.65h-1.31Zm3.92,0v.65h1.31v-.65h-1.31Zm7.19,0v.65h1.31v-.65h-1.31Zm5.88,0v.65h1.31v-.65h-1.31Zm7.19,0v.65h1.31v-.65h-1.31Zm31.38,0v.65h.65v-.65h-.65Zm7.19,0v.65h1.31v-.65h-1.31Zm-9.15,.65v.66h.65v-.66h-.65Zm-525.59,.66v1.96c-.96,.31-1.08,.66-2.62,.65v1.31c1.45-.43,2.71-1.55,3.93-1.96v-1.96h-1.31Zm3.27,0c-.25,.83-.39,.49-.65,1.31,.96,.31,1.09,.65,2.62,.65,.25-.83,.39-.48,.65-1.31-.78-.23-.41,.12-.65-.65h-1.97Zm3.27,0v.65c1.24,.43,.92,1.19,2.62,1.31v-.65c-.76-.19-1.11-.56-1.31-1.31h-1.31Zm-24.84,.65v.66h1.31v-.66h-1.31Zm28.76,0v.66h1.96v-.66h-1.96Zm3.92,0c-.25,.83-.4,.49-.66,1.31h1.31c.27-.87,.86-.75,1.96-.65v-.66h-2.61Zm3.92,0v.66h1.31v-.66h-1.31Zm3.27,0v.66h1.3v-.66h-1.3Zm3.92,0v.66h1.3v-.66h-1.3Zm3.27,0v.66h1.96v-.66h-1.96Zm4.58,1.96c.06-1.29,.35-1.04,.65-1.96h-1.31c-.52,1.5-1.82,1.28-1.96,3.27h.65c.23-.97,.71-1.31,1.96-1.31Zm2.61-1.96v.66h.66v-.66h-.66Zm3.27,0v.66h1.31v-.66h-1.31Zm4.57,0v.66h1.31v-.66h-1.31Zm15.04,0v.66h1.31v-.66h-1.31Zm4.57,0v.66h1.31v-.66h-1.31Zm2.62,0v.66h1.31v-.66h-1.31Zm3.92,0v.66h.65v-.66h-.65Zm3.27,0v3.27c1.79-.02,1.74-.52,3.27-.65v-1.31c-.92,.3-.67,.57-1.96,.65v-1.96h-1.31Zm5.88,0h-2.61v.66h1.31c-.3,.92-.58,.66-.65,1.96h.65c.19-.76,.55-1.11,1.3-1.31v-1.31Zm1.31,0v1.31h.65c.25-.83,.4-.48,.65-1.31h-1.31Zm-84.98,.66c-.25,.83-.4,.49-.65,1.3h1.96v-.65c-.78-.24-.41,.11-.65-.65h-.65Zm42.49,0v1.3c.78,.24,.41-.11,.65,.66h.65v-1.31c-.78-.24-.41,.11-.65-.65h-.65Zm5.23,1.3v-1.3h-.65c-.24,.78,.11,.41-.65,.65v.65h1.3Zm13.08-1.3v.65h.65v-.65h-.65Zm32.69,1.3v-1.3h-.65c-.24,.78,.11,.41-.65,.65v.65h1.31Zm6.54-1.3v.65h.66v-.65h-.66Zm7.19,0v.65h.65v-.65h-.65Zm1.96,1.3v1.31c-.76,.19-1.11,.56-1.31,1.31h1.31c.56-1.68,2.68-1.87,3.27-3.27-.78-.24-.41,.11-.65-.65h-.66c-.25,.83-.39,.49-.65,1.3h-1.31Zm5.88-1.3c-.25,.83-.39,.49-.65,1.3,1.69,.1,1.39,.88,2.62,1.31v-1.31c-.76-.19-1.11-.56-1.31-1.3h-.66Zm40.53,0c-.25,.83-.39,.49-.65,1.3,1.29,.06,1.05,.36,1.96,.66v-1.31c-.78-.24-.41,.11-.65-.65h-.65Zm-101.98,.65v.65h1.96v-.65h-1.96Zm97.4,0v3.27h-1.31c-.3-1.13-1.87-1.96-3.27-1.96v.65c.94,.32,.7,.87,1.31,1.31,1.26,.91,3.78,.67,5.88,.65v-1.31c-.76-.19-1.11-.55-1.31-1.3h1.31v-.66c-.96-.3-1.08-.65-2.61-.65Zm7.19,0c-.25,.83-.4,.49-.66,1.31,.62-.14,1.77-.67,1.96-1.31h-1.31Zm-168.01,1.96v-1.31h-1.96v.66c.92,.29,.67,.57,1.96,.65Zm3.27-1.31c.25,.83,.39,.49,.65,1.31-.82,.25-.68,.3-.65,1.31,.92,.29,.67,.57,1.96,.65v-.65c-.82-.25-.68-.3-.65-1.31,.62-.13,1.76-.67,1.96-1.31h-3.27Zm28.76,1.31v-1.31h-.66c-.24,.78,.12,.41-.65,.66v.65h1.31Zm5.23-1.31v1.31h.66v-1.31h-.66Zm1.96,0v.66h.66v-.66h-.66Zm1.96,0c-.25,.83-.39,.49-.65,1.31h1.96c.25-.83,.4-.48,.65-1.31h-1.96Zm7.85,0c-.25,.83-.4,.49-.65,1.31h1.31c.25-.83,.4-.48,.65-1.31h-1.31Zm11.11,0v.66h.65v-.66h-.65Zm7.19,1.31h1.31v-.65c-.78-.24-.41,.11-.65-.66h-.65v1.31Zm17-.65v1.3c.78,.24,.41-.11,.65,.66h.65c.24-.78-.11-.41,.66-.66v-1.3c-1.79-.02-1.75-.53-3.27-.66v.66h1.31Zm12.42-.66v.66h.66v-.66h-.66Zm32.69,0v.66c.78,.24,.41-.12,.65,.65h.65c.25-.83,.4-.48,.65-1.31h-1.96Zm5.88,0v.66h.65v-.66h-.65Zm4.57,1.31v1.31h1.31v-.66c-.87-.27-.75-.86-.65-1.96h-1.96c-.24,.78,.11,.41-.66,.66v.65h1.96Zm3.93-1.31v.66h1.31v-.66h-1.31Zm31.37,0v1.31h.66c.25-.83,.4-.48,.65-1.31h-1.31Zm4.58,0v.66h.65v-.66h-.65Zm3.27,0v.66h.65v-.66h-.65Zm3.92,0v.66h.65v-.66h-.65Zm7.19,0v1.31h1.31v-1.31h-1.31Zm5.23,2.62h1.31v-1.31c-1.23-.43-.92-1.19-2.61-1.31v.66c.97,.23,1.31,.71,1.3,1.96Zm1.96-2.62v.66h.65v-.66h-.65Zm2.62,0c-.31,.96-.65,1.09-.65,2.62h.65c.29-.97,1-1.66,1.31-2.62h-1.31Zm15.03,0c-.25,.83-.4,.49-.65,1.31h1.31c.25-.82,.3-.68,1.31-.65v-.66h-1.96Zm8.5,0v.66h.65v-.66h-.65Zm8.5,0h-1.31c.25,.83,.39,.49,.65,1.31-.82,.25-.68,.3-.65,1.31h.65c.24-.78-.11-.41,.65-.66v-1.96Zm-228.15,.66v.65h.66v-.65h-.66Zm64.07,0v3.27h1.31v-3.27h-1.31Zm3.92,0v.65h.65v-.65h-.65Zm28.76,0c-.06,1.29-.35,1.05-.65,1.96h1.31c.25-.83,.4-.48,.65-1.31-.78-.24-.41,.12-.65-.65h-.65Zm3.92,0v.65h1.31v-.65h-1.31Zm3.92,0v.65h1.31v-.65h-1.31Zm1.96,1.96h1.31c.06-1.29,.35-1.05,.65-1.96h-1.31c-.29,.92-.58,.67-.65,1.96Zm7.19,0h1.3c.06-1.29,.36-1.05,.65-1.96h-1.31c-.29,.92-.58,.67-.65,1.96Zm11.77-1.96v.65h1.31v-.65h-1.31Zm35.95,0v.65h1.96v-.65h-1.96Zm22.88,0c.01,1.53-.34,1.66-.66,2.61h1.31c.29-.92,.57-.67,.65-1.96-.78-.24-.41,.12-.65-.65h-.65Zm16.34,0v.65h.65v-.65h-.65Zm2.62,.65v1.31c1.79,.02,1.74,.52,3.27,.65v-.65c-.87-.27-.75-.86-.66-1.96-1.47,.1-1.15,.54-2.61,.65Zm28.76-.65v.65h.65v-.65h-.65Zm4.58,1.96h1.31c.06-1.29,.35-1.05,.65-1.96h-1.31c-.29,.92-.58,.67-.65,1.96Zm4.58-1.96c-.29,.92-.58,.67-.65,1.96h.65c.33-1,.97-.97,1.31-1.96h-1.31Zm3.92,0v.65h.66v-.65h-.66Zm3.27,0v.65h1.31v-.65h-1.31Zm3.92,0v.65h.66v-.65h-.66Zm3.92,1.96h-1.31v.65h3.27v-1.31c-.76-.19-1.11-.55-1.31-1.3h-.66v1.96Zm3.92,0h1.31v-1.31c-.92-.29-.67-.58-1.96-.65,.3,.92,.58,.67,.65,1.96Zm3.92-1.96v1.96h-1.96v.65h1.96c.25-.82,.3-.68,1.31-.65,.06-1.29,.36-1.05,.66-1.96h-1.96Zm4.58,2.61h1.31v-2.61h-1.96c.31,.96,.65,1.08,.65,2.61Zm15.69-.65h1.31c.06-1.29,.35-1.05,.65-1.96h-1.31c-.3,.92-.58,.67-.65,1.96Zm5.88-1.96v.65h.66v-.65h-.66Zm2.62,0v.65h.65v-.65h-.65Zm7.85,2.61h3.92v-.65h-2.62c-.24-.78,.11-.41-.65-.66v-1.3h-1.31c.31,.96,.66,1.08,.65,2.61Zm3.27-2.61v.65h.65v-.65h-.65Zm3.27,0v.65h.65v-.65h-.65Zm-319.02,1.96h1.31v-.66c-.78-.23-.41,.12-.65-.65h-.66v1.31Zm81.72-1.31v.65c-.76,.19-1.11,.56-1.31,1.31,.92,.29,.67,.57,1.96,.66v-.66c-.78-.24-.41,.12-.65-.65,.82-.25,.68-.3,.65-1.31h-.65Zm3.27,0v1.31h1.31v-1.31h-1.31Zm29.42,0v1.31h1.3v-1.31h-1.3Zm38.57,0v1.31h1.31v-1.31h-1.31Zm28.76,.65v1.31h4.57c.3-.92,.58-.67,.66-1.96-1.46,.47-1.81,1.29-3.92,1.31-.25-.82-.31-.68-1.31-.66Zm11.11-.65c-.29,.92-.58,.67-.65,1.96h.65c.29-.92,.58-.67,.65-1.96h-.65Zm17.65,0v1.31h1.31v-1.31h-1.31Zm24.19,1.31v-1.31h-.65c-.24,.78,.12,.41-.65,.65v.66h1.31Zm11.11,0h1.31v-.66c-.78-.23-.41,.12-.65-.65h-.65v1.31Zm41.18,0v-1.31h-.65c-.23,.78,.12,.41-.65,.65v.66h1.31Zm1.96,0h1.31v-.66c-.78-.23-.41,.12-.65-.65h-.65v1.31Zm28.11,0c1.29,.06,1.05,.35,1.96,.65v-.65c-.76-.19-1.11-.56-1.31-1.31h-.65v1.31Zm6.53,.65v-1.96h-.65c-.19,.76-.56,1.11-1.31,1.31v.65h1.96Zm6.54-1.96v1.31h.65v-1.31h-.65Zm4.57,1.31v-1.31h-.65c-.24,.78,.11,.41-.65,.65v.66h1.31Zm2.62-1.31v1.31h1.31v-1.31h-1.31Zm33.34,0v1.31h.65v-1.31h-.65Zm4.57,0v1.31h.65v-1.31h-.65Zm2.62,0v1.31h.65v-1.31h-.65Zm7.19,0v1.31c.92,.29,.67,.57,1.96,.65v-.65c-.76-.19-1.11-.56-1.3-1.31h-.66Zm3.92,1.31c1.47,.1,1.15,.53,2.62,.65v-.65c-1.69-.1-1.39-.87-2.62-1.31v1.31Zm3.27-1.31v1.31h1.31v-1.31h-1.31Zm-332.09,.65v1.31c.78,.24,.41-.12,.65,.66h.65v-1.97h-1.3Zm88.91,0v1.97h1.31v-1.97h-1.31Zm41.84,1.31v-1.31h-1.31c-.24,.78,.11,.41-.65,.66v.65h1.96Zm8.5-1.31v1.31c.78,.24,.41-.12,.65,.66,.62-.13,1.76-.67,1.96-1.31-.78-.24-.41,.12-.65-.66h-1.96Zm126.82,0v1.31h1.96v-1.31h-1.96Zm14.38,0v.66c.78,.24,.41-.12,.65,.65h.65c.25-.83,.4-.48,.65-1.31h-1.96Zm3.92,0v.66c1.02,.32,1.57,.68,3.27,.65v-.65c-1.53-.12-1.48-.62-3.27-.66Zm4.58,0v.66c1.02,.32,1.57,.68,3.27,.65v-.65c-.78-.24-.41,.12-.65-.66h-2.62Zm5.88,1.31v-1.31h-1.96v.66c.92,.29,.67,.57,1.96,.65Zm-352.35-.65v.65h1.3v-.65h-1.3Zm11.11,0v.65c.92,.29,.67,.57,1.96,.66v-.66c-.78-.24-.41,.12-.65-.65h-1.31Zm7.19,0v.65c.92,.29,.67,.57,1.96,.66v-.66c-.78-.24-.41,.12-.65-.65h-1.31Zm7.19,0c-.25,.83-.4,.48-.65,1.31h1.31c.25-.83,.39-.48,.65-1.31h-1.31Zm5.88,0h-1.3v.65c.78,.24,.41-.12,.65,.66h.65v-1.31Zm1.96,0v.65h.65v-.65h-.65Zm2.61,0c-.25,.83-.4,.48-.65,1.31,.96-.31,1.08-.66,2.61-.66v-.65h-1.96Zm4.57,0v.65h1.31v-.65h-1.31Zm3.92,0v.65h.66v-.65h-.66Zm3.27,0v.65h1.31v-.65h-1.31Zm3.92,0v.65h.66v-.65h-.66Zm11.11,1.31v-1.31h-1.31c-.23,.78,.12,.41-.65,.65v.66h1.96Zm1.31-1.31v1.31h1.31v-1.31h-1.31Zm6.54,0v.65h1.31v-.65h-1.31Zm81.71,0c-.25,.83-.4,.48-.65,1.31h1.31c.25-.83,.39-.48,.65-1.31h-1.31Zm3.27,0v.65h1.31v-.65h-1.31Zm64.72,0v.65h.65v-.65h-.65Zm4.58,0v.65h3.92v-.65h-3.92Zm7.85,0v.65h.65v-.65h-.65Zm20.26,0v.65h.65v-.65h-.65Zm7.19,0v.65h1.31v-.65h-1.31Zm20.92,0v.65h1.3v-.65h-1.3Zm23.53,0v.65h.65v-.65h-.65Zm52.95,0v.65h1.31v-.65h-1.31Zm2.62,0c-.25,.83-.4,.48-.65,1.31h1.31c.25-.83,.4-.48,.65-1.31h-1.3Zm3.92,0v.65h3.27v-.65h-3.27Zm29.42,0v.65h.65v-.65h-.65Zm3.92,0v.65h.65v-.65h-.65Zm3.27,0v.65h1.3v-.65h-1.3Zm4.57,0v.65h1.96v-.65h-1.96Zm7.85,0v.65h2.62v-.65h-2.62Zm11.11,0v.65h.65v-.65h-.65Zm17,0v.65h.66v-.65h-.66Zm4.58,0v.65h1.31v-.65h-1.31Zm3.92,0v.65h3.92v-.65h-3.92Zm5.89,0v.65h1.31v-.65h-1.31Zm3.92,0v.65h3.92v-.65h-3.92Zm-462.18,.65v.66h.66v-.66h-.66Zm10.46,0v.66h.65v-.66h-.65Zm102.64,0v.66h.65v-.66h-.65Zm3.92,0v.66h.65v-.66h-.65Zm7.84,0v.66h1.96v-.66h-1.96Zm9.81,0v1.31h2.62v-1.31c-.83,.25-.48,.39-1.31,.66-.25-.82-.3-.68-1.31-.66Zm5.89,0c-.25,.83-.4,.49-.66,1.31h1.96v-.65c-.78-.24-.41,.11-.65-.66h-.65Zm133.36,1.31v.65h1.31v-.65h-1.31Zm3.92,0v.65h1.3v-.65h-1.3Zm156.89,0v.65h1.31v-.65h-1.31Zm35.3,2.61v.66h1.96v-.66h-1.96Zm-180.43,2.62v-1.31c-3.52,1.02-9.33,.66-13.89,.66H143.16c-3.07,0-9.27,.84-11.11-.66-.42-.34-.59,.27-.65,.33-.87,.8-9.72,.33-11.76,.33h-24.03c-4.38,0-9.89,.29-13.24-.66-.24,.78,.11,.41-.65,.66v.65c4.58-.02,8.79,.03,11.77,0,.24,.78-.11,.41,.65,.65,.62-1.43,7.61-.65,9.64-.65,9.27,0,18.32,0,26.31,0,.23,.78-.12,.41,.65,.65,.45-1.02,13.23-.65,15.69-.65,16.93,0,33.84,.08,47.72,0,.24,.78-.11,.41,.65,.65,.47-1.07,10.84-.65,13.07-.65,14.26,0,27.54,.05,39.22,0v.65c.43-.06,.87-.11,1.31-.16,1.43-1.06,5.69-.49,8.01-.49,9.69,0,17.02,.07,25.99,.65,.28-.87,.86-.75,1.96-.65,.04,.07,12.78,.04,15.69,0Zm-254.95,1.31v.65c.78,.24,.41-.11,.65,.66h.66v-.66c-.78-.24-.41,.12-.66-.65h-.65Zm16.34,0v.65c.78,.24,.41-.11,.65,.66h.65v-.66c-.78-.24-.41,.12-.65-.65h-.65Zm69.95,0v.65h2.62v-.65h-2.62Zm18.31,0v.65h.65v-.65h-.65Zm49.68,0v.65h1.31v-.65h-1.31Zm7.19,0v.65h4.58v-.65h-4.58Zm9.15,0v.65c.78,.24,.41-.11,.65,.66h.65v-.66c-.78-.24-.41,.12-.65-.65h-.65Zm50.34,0v.65h.65v-.65h-.65Zm4.58,0v.65h-1.31v.66h1.31c.39-1.07,3.15-.74,4.58-.66v-.65h-4.58Zm11.77,0v.65h.65v-.65h-.65Zm9.15,0v.65h.65v-.65h-.65Zm2.62,0v.65h2.61v-.65h-2.61Zm9.15,0v1.31h.65c.25-.83,.4-.49,.65-1.31h-1.31Zm20.92,0v.65h4.58v-.65h-4.58Zm31.38,0v.65h.65v-.65h-.65Zm5.88,0v.65h3.27v-.65h-3.27Zm7.84,0v.65h1.31v-.65h-1.31Zm56.87,0v.65h2.62v-.65h-2.62Zm32.03,1.31v-1.31c-.57,.17-1.47,1.25-2.62,.65-.34-.17,.32-.78-.49-.65h-.16c-.38,.15-.23,.62-1.31,.65-.24-.78,.11-.41-.65-.65-.28,.87-.86,.75-1.96,.65-.23-.78,.12-.41-.65-.65-.28,.87-.86,.75-1.96,.65-.25-.82-.3-.67-1.31-.65-.24,.78,.12,.41-.65,.65-.24-.78,.11-.41-.65-.65-.3,.95-1.43,.74-2.62,.65v.66h15.04Zm15.04-1.31v.65h-13.07v.66h62.1v-.66h-3.92c-.76-1.76-5.36,1.27-7.85,0-1.33-.68-13.69,1.18-15.69,0-2.4-1.41-1.94,.38-4.09,0-.79-.14-.1-.42-.49-.65h-.82c-.83,.08-.15,.57-.98,.65-1.1,.11-.69-1.09-1.96-.65h-.16c-.39,.21-2.66,1.4-3.92,.65-.71-.42-1.25-.72-2.78-.65-1.16,.05-.63,.33-1.14,.65-1.41,.9-4.59-.47-5.23-.65Zm50.34,0v.65c4.51,1.36,12.03,.66,17.65,.66h34.65v-.66c-.92-.29-.67-.57-1.96-.65-.47,1.07-10.55,.66-12.75,.65-4.23,0-14.65,.96-17.32-.65-1.86-1.12-2.93,1.61-4.57,.65v-.65c-2.63-1.58-5.25,1.65-7.19,.16-.44-.05-.87-.1-1.3-.16-.39,.2-2.66,1.4-3.92,.65-.53-.31-.13-.57-1.31-.65-.44,1.37-1.22,.26-1.96,0Zm-464.14,.65v.66h.65v-.66h-.65Zm52.95,0v.66h.65v-.66h-.65Zm3.27,0v.66h.65v-.66h-.65Zm36.61,0v.66h.66v-.66h-.66Zm61.45,0v.66h.65v-.66h-.65Zm39.23,0v.66h.65v-.66h-.65Zm36.61,0v.66h.66v-.66h-.66Zm16.34,0v.66h1.31v-.66h-1.31Zm48.37,0v.66h.65v-.66h-.65Zm52.95,0v.66h.65v-.66h-.65Zm13.73,0v.66h.65v-.66h-.65Zm2.62,0v.66h.65v-.66h-.65Zm-341.9,1.96v.65h72.56v-.65H81.72Zm79.75,0v.65h.66v-.65h-.66Zm27.46,0v.65h.65v-.65h-.65Zm27.46,0v.65h.65v-.65h-.65Zm45.11,0v.65h.65v-.65h-.65Zm11.11,0v.65h.65v-.65h-.65Zm5.23,0v.65h.65v-.65h-.65Zm11.11,0v.65h.65v-.65h-.65Zm5.23,0v.65h.65v-.65h-.65Zm11.11,0v.65h.65v-.65h-.65Zm15.69,0v.65h.66v-.65h-.66Zm5.23,0v.65h.65v-.65h-.65Zm5.88,0v.65h.66v-.65h-.66Zm5.23,0v.65h.65v-.65h-.65Zm5.88,0v.65h.65v-.65h-.65Zm5.23,0v.65h.65v-.65h-.65Zm5.88,0v.65h.65v-.65h-.65Zm5.23,0v.65h.65v-.65h-.65Zm16.34,0v.65h.65v-.65h-.65Zm5.88,0v.65h.65v-.65h-.65Zm11.77,0v.65h.65v-.65h-.65Zm27.45,0v.65h.65v-.65h-.65Zm152.32,2.61v.66h1.31v-.66h-1.31Zm-528.21,.66v.65h1.31v-.65h-1.31Zm154.28,0v1.3h.65v-1.3h-.65Zm15.69,0v.65h1.31v-.65h-1.31Zm58.84,0v.65h1.31v-.65h-1.31Zm79.75,0v.65h.65v-.65h-.65Zm132.05,0v.65h.65v-.65h-.65Zm24.84,0v.65h1.31v-.65h-1.31Zm5.23,0v1.3h3.27v1.96c1.88,.55,1.42,4.12,1.3,6.54-.76,.19-1.11,.56-1.3,1.31h1.96c.79-2.57,.68-6.9,.65-10.46-.77-.23-.41,.12-.65-.65h-5.23Zm-390.27,6.53h175.2v-1.3c-1.35-.35-1.44-1.47-1.31-3.27h-.66v2.61c.78,.24,.41-.11,.66,.66-2.08,.64-5.48,.68-8.5,.65-.38-1.21-.69-2.56-.65-4.57h-.66v3.27h-20.26v-2.61h-.65v2.61h-20.27v-3.27h-.65c-.33,1.02-.68,1.57-.65,3.27h-20.27v-2.61h-.65v2.61h-20.92v1.31H125.51v-1.31h39.22v-3.27h-.65v2.62h-38.57v-1.96c-.92-.29-.67-.57-1.96-.65-.29,.92-.58,.66-.65,1.96,1.23,.42,.72,5.52,.65,7.19,.78,.24,.41-.12,.65,.65h.66c.24-.78-.12-.41,.65-.65v-3.93Zm40.53-1.96h30.07v-2.61h-1.31c.25,.83,.4,.49,.65,1.31-6.35,1.92-20.81,.68-28.76,.66v-2.62h-.65v3.27Zm156.89-3.27h-1.31c-.3,.92-.58,.66-.66,1.96,2.44,.88,.84,5.34,.66,7.19,.78,.24,.41-.12,.65,.65h.65c.08-1.13,.41-.83,.65-1.31v-.49c.1-1.04-.43-.4-.65-.81v-7.19Zm41.18,0v2.62h.65v-2.62h-.65Zm29.42,0v1.96h.65v-1.96h-.65Zm30.72,0v3.27h1.31v-3.27h-1.31Zm21.57,0v3.27h.65v-3.27h-.65Zm20.92,0v3.27h.65v-3.27h-.65Zm20.92,0v3.27h.65c.31-.96,.66-1.08,.65-2.61-.78-.23-.41,.12-.65-.65h-.65Zm9.16,0v3.27h.65v-3.27h-.65Zm-483.75,.65v.66h5.88v-.66h-5.88Zm23.53,0v.66h7.84v-.66h-7.84Zm20.27,0v.66h7.19v-.66h-7.19Zm19.61,0v.66h3.92v-.66h-3.92Zm5.23,0v.66h4.58v-.66h-4.58Zm20.27,3.92v-3.92h-1.31v3.92h-7.85c-.35-1.1-.69-2.07-.65-3.92h-.65v3.27c-2.4,.74-6.43,.68-9.8,.65v.65h30.07v-.65h-9.81Zm17.65-3.92v.66h.65v-.66h-.65Zm85.64,0v.66h.65v-.66h-.65Zm198.08,0v.66h.65v-.66h-.65Zm5.88,0v.66h10.46v-.66h-10.46Zm21.57,0v.66h9.8v-.66h-9.8Zm20.92,0v.66h10.46v-.66h-10.46Zm20.92,0v.66h10.46v-.66h-10.46Zm93.49,0v.66h3.92v-.66h-3.92Zm-354.97,.66v1.31h10.46v-.66c-.78-.24-.41,.12-.66-.65h-9.8Zm31.38,1.31v-1.31h-9.8c-.24,.78,.11,.41-.66,.65v.66h10.46Zm11.11-1.31v1.31h9.81v-1.31h-9.81Zm20.92,0v1.31h10.46v-.66c-.78-.24-.41,.12-.65-.65h-9.81Zm128.79,.65v.66h.65v-.66h-.65Zm-101.33,1.3v1.96h7.84v-1.3c-.78-.24-.41,.12-.65-.66-.83,.25-.49,.4-1.31,.66-.39-1.16-4.35-.72-5.88-.66Zm28.76,1.31v.65h.65v-.65h-.65Zm6.54,0v.65h.65v-.65h-.65Zm5.88,0v.65h.65v-.65h-.65Zm5.23,0v.65h.65v-.65h-.65Zm11.11,0v.65h.65v-.65h-.65Zm16.34,0v.65h.65v-.65h-.65Zm5.88,0v.65h.65v-.65h-.65Zm11.11,0v.65h.65v-.65h-.65Zm5.23,0v.65h.65v-.65h-.65Zm11.11,0v.65h.65v-.65h-.65Zm5.23,0v.65h.65v-.65h-.65Zm11.77,0v.65h.65v-.65h-.65Zm11.11,0v.65h.65v-.65h-.65Zm5.88,0v.65h.65v-.65h-.65Zm11.11,0v.65h.66v-.65h-.66Zm5.23,0v.65h.65v-.65h-.65Zm16.34,0v.65h.65v-.65h-.65Zm5.23,0v.65h.65v-.65h-.65Zm11.11,0v.65h.65v-.65h-.65Zm5.88,0v.65h.65v-.65h-.65Zm25.5,0v.65h.65v-.65h-.65Zm5.89,0v.65h.65v-.65h-.65Zm16.99,0v.65h.65v-.65h-.65Zm11.11,0v.65h.65v-.65h-.65Zm5.23,0v.65h.65v-.65h-.65Zm5.88,0v.65h.65v-.65h-.65Zm5.23,0v.65h.65v-.65h-.65Zm5.88,0v.65h.65v-.65h-.65Zm-560.24,4.58v.65h1.96v-.65h-1.96Zm2.61,0v.65c.78,.24,.41-.11,.66,.65h.65c.25-.83,.4-.49,.65-1.3h-1.96Zm56.22,0c.06,.9,.81,1.54,.65,1.96-.14,.35-.59,.26-.65,1.31h1.31c-.04-1.71,.32-2.25,.66-3.27h-1.96Zm3.27,0v1.3h1.96v-1.3h-1.96Zm28.76,0v.65h.65v-.65h-.65Zm107.86,0v3.27h.65v-3.27h-.65Zm58.83,0v3.27h.65v-3.27h-.65Zm139.24,0v2.61h.65v-2.61h-.65Zm99.37,0v.65h1.31v-.65h-1.31Zm41.19,0v1.96h.65v-1.96h-.65Zm-392.88,.65v.65h.65v-.65h-.65Zm56.87,0v.65h.66v-.65h-.66Zm197.42,0v.65h1.96v-.65h-1.96Zm58.83,0v.65h1.96v-.65h-1.96Zm50.34,1.31v.65h.65v-.65h-.65Zm-477.87,.65v.66h.66v-.66h-.66Zm57.53,0v.66h.65v-.66h-.65Zm81.72,0v.66h.65v-.66h-.65Zm102.63,0v.66h.65v-.66h-.65Zm-130.75,3.92v.66h.65v-.66h-.65Zm396.15,0v3.27h.65v-3.27h-.65Zm0,6.54v2.62h.65v-2.62h-.65Zm-305.29,5.88c.04,2.84-.06,5.94-.65,7.85h1.3v-2.62h1.31v-.65h-1.31v-3.27h3.92c-.29,.92-.58,.67-.65,1.96h1.31v-1.31c1.62,0,3.68-.22,4.58,.49,.22,.05,.44,.1,.65,.16,2.15-.86,4.76-1.3,7.85-1.31-.06,1.29-.36,1.05-.65,1.96h1.31v-1.31c2.07,.01,8.15,.61,9.15,0,.58-.35,1.13-1.06,1.96-1.31,.27,.87,.86,.75,1.96,.65v1.31c1.5-.44,3.75-1.13,5.23,0h.65v-.65h3.92c.58-.35,1.13-1.07,1.96-1.31,.25,.82,.3,.68,1.31,.65v1.96h.65c.29-1.17,1.05-1.41,2.62-1.31v-.66c-.82-.26-1.39-.97-1.96-1.31-1.75-1.03-11.73,2.16-14.38,.66-2-1.13-7.7,.02-11.44,0-1.99-.01-1.32-.1-2.29-.66-1.64-.93-4.04,.6-5.07,.66-5.1,.27-8.61-.66-13.24-.66Zm56.22,0v.66h-1.31v.65h1.96c.25-.82,.3-.68,1.31-.65v-.66h-1.96Zm-5.88,.66v1.31c.78,.24,.41-.12,.65,.65h.66v-1.96h-1.31Zm56.87,21.07v.65h.65v-.65h-.65Zm-41.84-14.54v-3.27h-1.31c.54,1.56,.53,1.71,0,3.27h1.31Zm-35.95-2.62v1.31h1.31c.25-.83,.39-.49,.65-1.31h-1.96Zm28.76,1.96h1.31v-.65c-1.29-.07-1.05-.35-1.96-.66v2.62h.65v-1.31Zm2.61-.65v1.31h.66c.25-.83,.4-.49,.65-1.31h-1.31Zm-46.41,1.96v.65h.65v-.65h-.65Zm43.8,.65v.65h1.31v-.65h-1.31Zm3.92,0v.65h1.31v-.65h-1.31Zm-61.45,1.96c-.01,7.08-.02,10.5,0,17h48.39c0-.9-.01-1.09-.01-2.62-.97-.23-.4-.8-.39-2.05,.97-.23,.4-1.31,.39-2.56-3.82,0-10.19,.01-15.04,.04-.08,.74,.11,.28-.65,.52v3.4h-9.15c0-1.09,0-2.86,0-3.95-2.35,0-11.48,0-20.27,.03v-1.33c5.25,0,13.97-.06,20.32-.03,0-.87-.02-2.66-.06-4.52h9.15v4.15c5.86,0,12.62-.08,15.64-.09,0-.96,.05-1.05,.05-2.09-.78-.24-.67,.08-.65-.66h-1.31v-3.27c.92-.29,.67-.58,1.96-.66v-1.31h-48.38Zm49.68,0c.02,1.79,.53,1.75,.65,3.27h5.89v-3.27h-6.54Zm0,7.85h3.27v1.96h-3.27v1.96h3.92v-1.31h2.61v-5.88h-5.89c-.32,1.02-.68,1.57-.65,3.27Zm8.5-2.62v.66h5.88v-.66h-5.88Zm-1.31,5.88v.66h.65v-.66h-.65Zm-1.31,1.31v.66h.65v-.66h-.65Zm1.31,1.31v1.3h.65v-1.3h-.65Zm-7.19,.65v1.31h3.92v-.66c-.78-.24-.41,.12-.65-.65h-3.27Zm5.23,3.27h1.96v-.65c-.82-.25-.68-.3-.65-1.31h-1.96c.29,.92,.58,.67,.65,1.96Zm5.88,1.31v1.3h.65v-1.3h-.65Zm-3.27,1.96v.65h.66v-.65h-.66Zm5.88,1.31v-1.31h-.65c-.24,.78,.11,.41-.65,.65v.66h1.31Zm-2.61,0h-1.31v.65c.78,.24,.41-.12,.65,.66h.66v-1.31Zm-2.61,5.88v.66h6.53v-.66h-6.53Zm-8.5,24.84v3.27c2.75-.72,.53,.52,3.27,.66,.27-.87,.86-.76,1.96-.66,.24,.78-.11,.41,.65,.66v-1.31c-.82-.25-.68-.3-.65-1.31,3.12-.02,6.25,.47,8.5,.65v-1.31c-2.88,0-5.06-.64-8.5-.65v-16.34h-.65v16.34c-.92,.29-.67,.58-1.96,.65-.3-.94-1.43-.74-2.61-.65Zm18.3-13.73v.66h1.31v-.66h-1.31Zm.65,1.96v.65c1.02,.33,1.57,.68,3.27,.65v-.65c-1.52-.11-1.48-.62-3.27-.65Zm-.65,2.61v.66h3.27v-.66h-3.27Zm0,3.92v.65h3.92v-.65h-3.92Zm0,1.31v1.31h2.62v.65h-2.62v1.31c1.7,.04,2.25-.32,3.27-.66,.23,.78-.12,.41,.65,.66v-2.62c-1.55-.12-1.93-.64-3.92-.65Zm-98.71,7.85v-1.31h-1.31v-.66c.78-.23,.41,.12,.65-.65-1.69-.1-1.39-.88-2.61-1.31-.33,1.02-.68,1.57-.65,3.27,1.1,.35,2.07,.68,3.92,.66Zm6.54-3.27v1.31c2.02-.59,8.55-1.57,10.46,0,.22-.05,.44-.11,.65-.17,1.28-1.16,3.86-.12,4.9,.17h.98c.25-.82,.3-.68,1.31-.65v1.31c.92,.29,.67,.57,1.96,.65v-1.31c1.06-.08,2.53-1.44,3.92-.65,.61,.34,.62,.62,1.96,.65v-.65c-1.7-.15-1.06-.73-1.96-1.31h-22.88c-.25,.82-.3,.67-1.31,.65Zm30.07,0v1.31c2.51,0,3.21-.64,5.89-.65v1.31c1.38,.48,1.1,1.3,3.27,1.31v-1.31c5.14-.42,10.69-3.03,16.34-1.31,.25-.83,.4-.49,.65-1.31h-16.34c-.19,.76-.56,1.11-1.31,1.31-.58-1.58-3.62-1.42-5.88-1.31-.19,.76-.56,1.11-1.31,1.31-.25-.82-.3-.68-1.31-.66Zm31.38-.65v1.31c-.92-.3-.67-.58-1.96-.66-.24,.78,.12,.41-.65,.66v.65c.92-.29,.67-.57,1.96-.65v1.31h-1.96v.65c.92,.29,.67,.57,1.96,.66,.1-1.47,.53-1.15,.65-2.62h.66c.36,1.56,1.06,2.73,3.27,2.62,.39-1.08,2.97-1.4,4.58-1.31v-.66c-.96-.31-1.08-.65-2.62-.65-.28,.86-.86,.75-1.96,.65-.42-1.57-1.72-2.09-3.92-1.96Zm3.92,0v.65h1.31v-.65h-1.31Zm33.99,1.96c-2.26-.22-1.16-.66-3.27,0-.26-.68-3.79-1.3-4.58-1.31,.3,.92,.58,.67,.65,1.96,2.26,.22,1.16,.66,3.27,0,.45,1.62,2.47,1.44,4.57,1.31v-1.31c1.3,.06,1.05,.35,1.96,.65,.41-.98,.91-.33,1.31-1.31h-1.31v-1.96h-.65c-.19,.76-.56,1.11-1.31,1.31v-1.31h-.65v1.96Zm6.53,1.96h1.96c.37-1.26,2.02-2.29,3.27-2.62v1.31h.65c.42-1.27,1.52-.88,1.96-1.96-1.21-.38-2.57-.68-4.58-.65-.21,.6-1.99,1.79-2.61,1.96v-1.96h-.66v3.93Zm-17-3.27v.66h1.31v-.66h-1.31Zm32.03,0v1.31h-1.31v1.31c.78,.23,.41-.12,.65,.66h.65v-1.96c1.47-.1,1.15-.53,2.62-.65v-.66h-2.62Zm5.23,0v.66c1.47,.1,1.15,.53,2.62,.65,.25-.83,.39-.49,.65-1.31h-3.27Zm7.19,0v.66h.65v-.66h-.65Zm-138.59,3.27h5.89v-1.31h-2.62v-.66c.78-.23,.41,.12,.65-.65h-3.92c.25,.82,.39,.48,.65,1.31-.82,.24-.68,.3-.65,1.31Zm32.03-2.62v1.31h1.96c.25-.83,.4-.49,.65-1.31h-2.62Zm26.15,0c-.25,.82-.4,.48-.65,1.31h1.96v-.66c-.78-.23-.41,.12-.65-.65h-.65Zm18.96,0c-.1,1.47-.53,1.15-.65,2.62h.65c.31-.96,.66-1.08,.65-2.62h-.65Zm5.23,0v1.31h-1.96v-.66c.92-.29,.67-.57,1.96-.65Zm-26.81,.65v.66h1.31v-.66h-1.31Zm5.89,0v.66h.65v-.66h-.65Zm40.53,0h.66v.66h-.66v-.66Zm30.07,1.96v-1.31c-1.29-.07-1.05-.36-1.96-.66v1.31c.92,.29,.67,.57,1.96,.66Zm-123.55-1.31v1.31h3.27v-1.31h-3.27Zm77.79,0v1.31c2,0,2.37-.53,3.92-.66v-.65h-3.92Zm5.88,0v1.31h1.31v-1.31h-1.31Zm35.3,.65v.66h.65v-.66h-.65Zm-43.8,84.98c0,1.31,.03,3.29,.03,4.6-1.07,0-2.59,.01-4.61-.02v1.96h4.61c0,1.22,0,2.56-.03,4.58h1.96v-4.56c1.12,0,3.13-.01,4.58-.01v-1.96h-4.58v-4.57h-1.96Z" style="fill:url(#linear-gradient); fill-rule:evenodd;"/><g><path d="M106.18,281.73c-12.28,0-22.99-5.14-28.55-13.33l10.6-9.45c5.14,5.98,11.76,8.4,18.79,8.4,8.71,0,12.8-2.42,12.8-7.98,0-4.73-2.52-6.83-16.37-9.98-13.54-3.15-22.99-7.45-22.99-21.94,0-13.33,11.76-21.52,26.24-21.52,11.44,0,19.84,4.3,26.77,11.55l-10.6,10.29c-4.72-4.83-9.97-7.56-16.69-7.56-7.88,0-10.5,3.36-10.5,6.61,0,4.62,3.15,6.09,14.8,8.82,11.65,2.73,24.56,6.72,24.56,22.67,0,13.96-8.82,23.41-28.87,23.41Z" style="fill:#fff;"/><path d="M231.85,228.51c-2.62-5.04-6.82-7.98-13.43-7.98-11.02,0-17.32,9.66-17.32,23.3s6.4,23.31,17.42,23.31c6.61,0,10.5-2.84,14.38-9.34l12.38,7.35c-5.04,10.39-13.86,16.58-27.19,16.58-19.21,0-32.12-14.7-32.12-37.89s13.44-37.89,32.65-37.89c13.86,0,22.25,6.72,26.87,16.27l-13.65,6.3Z" style="fill:#fff;"/><path d="M349.11,280.58l-5.77-16.38h-26.87l-5.77,16.38h-15.75l28.13-73.48h14.28l27.92,73.48h-16.17Zm-15.54-43.67c-1.47-4.3-2.94-8.71-3.67-11.44-.73,2.73-2.2,7.14-3.67,11.44l-4.72,13.33h16.79l-4.72-13.33Z" style="fill:#fff;"/><path d="M422.72,280.58v-72.77l14.7-.71v59h36.84v14.48h-51.54Z" style="fill:#fff;"/><path d="M539.58,280.58v-73.48h48.77v14.38h-34.08v12.71h21.1v14.28h-21.1v17.74h32.77l-.95,14.38h-46.52Z" style="fill:#fff;"/></g></svg>